<svg version="1.1" id="Layer_1" xmlns="http://www.w3.org/2000/svg" xmlns:xlink="http://www.w3.org/1999/xlink" x="0px" y="0px"
	 width="100%" viewBox="0 0 652 562" enable-background="new 0 0 652 562" xml:space="preserve">
<path fill="#F4F4F6" opacity="0.000000" stroke="none" 
	d="
M1.000000,195.000000 
	C1.000000,130.000015 1.000000,65.500023 1.000000,1.000026 
	C218.333298,1.000017 435.666595,1.000017 652.999878,1.000009 
	C652.999939,188.333252 652.999939,375.666504 653.000000,562.999817 
	C435.666779,562.999878 218.333572,562.999878 1.000184,562.999939 
	C1.000000,440.500000 1.000000,318.000000 1.000000,195.000000 
M546.437134,50.923740 
	C543.291870,50.651649 540.146667,50.142529 537.001343,50.141594 
	C403.684418,50.101883 270.367523,50.098701 137.050613,50.116005 
	C114.519966,50.118927 100.149063,64.474464 100.125847,86.919136 
	C100.100677,111.248062 100.120125,135.577042 100.120132,159.906006 
	C100.120140,269.059235 100.109093,378.212463 100.129463,487.365692 
	C100.133553,509.238892 114.599113,523.871582 136.332855,523.876709 
	C270.149689,523.908325 403.966553,523.909668 537.783386,523.875000 
	C559.254700,523.869446 573.866699,509.226929 573.871460,487.753632 
	C573.900940,353.938019 573.896484,220.122391 573.874268,86.306770 
	C573.871277,68.375359 564.618652,56.214676 546.437134,50.923740 
z"/>
<path fill="#FFBC5E" opacity="1.000000" stroke="none" 
	d="
M546.854980,50.981930 
	C564.618652,56.214676 573.871277,68.375359 573.874268,86.306770 
	C573.896484,220.122391 573.900940,353.938019 573.871460,487.753632 
	C573.866699,509.226929 559.254700,523.869446 537.783386,523.875000 
	C403.966553,523.909668 270.149689,523.908325 136.332855,523.876709 
	C114.599113,523.871582 100.133553,509.238892 100.129463,487.365692 
	C100.109093,378.212463 100.120140,269.059235 100.120132,159.906006 
	C100.120125,135.577042 100.100677,111.248062 100.125847,86.919136 
	C100.149063,64.474464 114.519966,50.118927 137.050613,50.116005 
	C270.367523,50.098701 403.684418,50.101883 537.001343,50.141594 
	C540.146667,50.142529 543.291870,50.651649 546.854980,50.981930 
M140.538696,62.890644 
	C139.705734,62.890724 138.866531,62.957775 138.040710,62.880970 
	C122.225777,61.410114 112.060532,73.061890 112.738876,87.828568 
	C113.502647,104.454811 112.908821,121.143143 112.924911,137.804443 
	C112.926292,139.231049 113.073227,140.657501 113.142212,141.898071 
	C262.677216,141.898071 411.728088,141.898071 560.990601,141.898071 
	C560.990601,121.672760 560.998718,101.712997 560.966064,81.753319 
	C560.964478,80.777710 560.668396,79.785683 560.405273,78.829994 
	C557.525879,68.371216 549.484863,62.896770 536.900818,62.896027 
	C405.109772,62.888241 273.318756,62.890884 140.538696,62.890644 
M345.500000,154.979660 
	C268.065369,154.979660 190.630722,154.979660 112.915771,154.979660 
	C112.915771,156.982071 112.915771,158.453064 112.915779,159.924057 
	C112.915886,269.084869 112.911179,378.245667 112.921585,487.406494 
	C112.923035,502.655121 121.418663,511.100616 136.774002,511.101868 
	C270.266846,511.112640 403.759674,511.112762 537.252502,511.101685 
	C552.597351,511.100403 561.095947,502.650604 561.097717,487.389679 
	C561.110535,378.062195 561.105713,268.734741 561.094177,159.407272 
	C561.093994,157.983780 560.932251,156.560303 560.836426,154.979660 
	C489.127350,154.979660 417.813660,154.979660 345.500000,154.979660 
z"/>
<path fill="#FFDB6E" opacity="1.000000" stroke="none" 
	d="
M141.033203,62.890644 
	C273.318756,62.890884 405.109772,62.888241 536.900818,62.896027 
	C549.484863,62.896770 557.525879,68.371216 560.405273,78.829994 
	C560.668396,79.785683 560.964478,80.777710 560.966064,81.753319 
	C560.998718,101.712997 560.990601,121.672760 560.990601,141.898071 
	C411.728088,141.898071 262.677216,141.898071 113.142212,141.898071 
	C113.073227,140.657501 112.926292,139.231049 112.924911,137.804443 
	C112.908821,121.143143 113.502647,104.454811 112.738876,87.828568 
	C112.060532,73.061890 122.225777,61.410114 138.040710,62.880970 
	C138.866531,62.957775 139.705734,62.890724 141.033203,62.890644 
M212.938217,124.775826 
	C208.596436,119.832413 204.484711,114.657394 199.827744,110.031258 
	C196.972351,107.194756 195.902466,104.898621 197.039291,100.659637 
	C200.215302,88.816887 192.609329,76.836075 180.757294,73.925720 
	C168.626297,70.946869 156.386093,78.153183 153.293076,90.095078 
	C150.204865,102.018410 157.413422,115.116959 169.443756,117.454323 
	C175.138474,118.560745 181.337631,117.070816 189.115524,116.662262 
	C192.096359,119.721542 196.537491,124.445412 201.162277,128.982056 
	C206.388474,134.108658 211.154037,132.665237 212.938217,124.775826 
M508.841675,117.256744 
	C515.627930,106.813553 515.440308,96.155624 508.312744,87.216515 
	C501.768585,79.009056 490.747742,75.945290 480.920898,79.601646 
	C471.334259,83.168602 465.038086,92.024376 464.920959,102.106071 
	C464.799133,112.593048 470.860931,121.610970 480.552673,125.360802 
	C490.567688,129.235687 500.456482,126.556168 508.841675,117.256744 
M326.792999,119.688614 
	C336.198212,128.142349 347.670807,129.427734 357.406616,123.118546 
	C366.906830,116.962044 370.962219,105.396416 367.344757,94.775833 
	C364.119507,85.306732 355.661255,78.566727 345.802399,78.140587 
	C335.378845,77.690041 327.258240,82.131172 322.550537,91.425461 
	C317.552399,101.293175 319.030273,110.736687 326.792999,119.688614 
M432.545532,83.903732 
	C422.543579,76.435226 411.383850,76.096321 402.150299,82.980682 
	C393.579742,89.370735 390.184235,100.478310 393.722321,110.551048 
	C397.059113,120.050812 405.672943,126.581154 415.411285,126.993958 
	C425.653503,127.428116 434.890503,121.808472 439.042664,112.617043 
	C443.441772,102.878937 441.328583,92.839760 432.545532,83.903732 
z"/>
<path fill="#FFDB6E" opacity="0.000000" stroke="none" 
	d="
M346.000000,154.979660 
	C417.813660,154.979660 489.127350,154.979660 560.836426,154.979660 
	C560.932251,156.560303 561.093994,157.983780 561.094177,159.407272 
	C561.105713,268.734741 561.110535,378.062195 561.097717,487.389679 
	C561.095947,502.650604 552.597351,511.100403 537.252502,511.101685 
	C403.759674,511.112762 270.266846,511.112640 136.774002,511.101868 
	C121.418663,511.100616 112.923035,502.655121 112.921585,487.406494 
	C112.911179,378.245667 112.915886,269.084869 112.915779,159.924057 
	C112.915771,158.453064 112.915771,156.982071 112.915771,154.979660 
	C190.630722,154.979660 268.065369,154.979660 346.000000,154.979660 
M127.973907,382.500000 
	C127.973984,410.990814 127.967865,439.481598 127.976364,467.972412 
	C127.981812,486.215820 137.779709,496.013672 156.001740,496.013885 
	C276.629761,496.015289 397.257782,496.015198 517.885803,496.014069 
	C536.178894,496.013916 546.013794,486.249603 546.014404,468.073212 
	C546.017456,378.102020 546.017151,288.130829 546.014709,198.159653 
	C546.014221,179.947571 536.153564,170.062607 517.982910,170.062241 
	C397.354889,170.059799 276.726837,170.059982 156.098816,170.062042 
	C137.859863,170.062363 127.978256,179.893280 127.976425,198.058762 
	C127.970245,259.205841 127.973969,320.352936 127.973907,382.500000 
z"/>
<path fill="#040404" opacity="1.000000" stroke="none" 
	d="
M212.960114,125.161469 
	C211.154037,132.665237 206.388474,134.108658 201.162277,128.982056 
	C196.537491,124.445412 192.096359,119.721542 189.115524,116.662262 
	C181.337631,117.070816 175.138474,118.560745 169.443756,117.454323 
	C157.413422,115.116959 150.204865,102.018410 153.293076,90.095078 
	C156.386093,78.153183 168.626297,70.946869 180.757294,73.925720 
	C192.609329,76.836075 200.215302,88.816887 197.039291,100.659637 
	C195.902466,104.898621 196.972351,107.194756 199.827744,110.031258 
	C204.484711,114.657394 208.596436,119.832413 212.960114,125.161469 
M179.849304,104.601334 
	C184.093445,101.901474 186.076035,98.056816 184.782486,93.149048 
	C183.734573,89.173309 180.931778,86.593422 176.705673,86.000786 
	C172.308884,85.384224 168.846573,87.027969 166.590881,90.838493 
	C164.433640,94.482697 164.617706,98.230026 167.152100,101.583923 
	C170.228622,105.655258 174.377197,106.581482 179.849304,104.601334 
z"/>
<path fill="#050505" opacity="1.000000" stroke="none" 
	d="
M508.614014,117.537781 
	C500.456482,126.556168 490.567688,129.235687 480.552673,125.360802 
	C470.860931,121.610970 464.799133,112.593048 464.920959,102.106071 
	C465.038086,92.024376 471.334259,83.168602 480.920898,79.601646 
	C490.747742,75.945290 501.768585,79.009056 508.312744,87.216515 
	C515.440308,96.155624 515.627930,106.813553 508.614014,117.537781 
M501.032776,101.684753 
	C499.107635,91.961525 489.911530,87.630989 482.496979,92.956078 
	C477.982910,96.198036 476.296814,102.067245 478.420502,107.146027 
	C480.476959,112.064026 485.399323,114.823997 490.935150,114.162987 
	C496.720795,113.472130 500.302887,109.350357 501.032776,101.684753 
z"/>
<path fill="#050505" opacity="1.000000" stroke="none" 
	d="
M326.541412,119.433746 
	C319.030273,110.736687 317.552399,101.293175 322.550537,91.425461 
	C327.258240,82.131172 335.378845,77.690041 345.802399,78.140587 
	C355.661255,78.566727 364.119507,85.306732 367.344757,94.775833 
	C370.962219,105.396416 366.906830,116.962044 357.406616,123.118546 
	C347.670807,129.427734 336.198212,128.142349 326.541412,119.433746 
M341.165253,91.113312 
	C339.835419,91.779312 338.384613,92.278748 337.197449,93.141151 
	C332.857391,96.293968 331.268616,101.998398 333.208923,106.951904 
	C335.116913,111.822884 340.134979,114.746567 345.627533,114.187340 
	C350.706024,113.670273 354.917236,109.776337 355.869385,104.717056 
	C357.383484,96.671753 351.291779,90.654785 341.165253,91.113312 
z"/>
<path fill="#050505" opacity="1.000000" stroke="none" 
	d="
M432.820496,84.133591 
	C441.328583,92.839760 443.441772,102.878937 439.042664,112.617043 
	C434.890503,121.808472 425.653503,127.428116 415.411285,126.993958 
	C405.672943,126.581154 397.059113,120.050812 393.722321,110.551048 
	C390.184235,100.478310 393.579742,89.370735 402.150299,82.980682 
	C411.383850,76.096321 422.543579,76.435226 432.820496,84.133591 
M405.154724,100.087311 
	C404.779907,107.777687 408.080017,112.860779 414.217865,114.047081 
	C420.396301,115.241226 426.247650,111.883354 428.002441,106.136658 
	C429.850983,100.082893 426.741516,93.691872 420.883179,91.504158 
	C414.510681,89.124428 408.653259,92.075951 405.154724,100.087311 
z"/>
<path fill="#FFDB6E" opacity="1.000000" stroke="none" 
	d="
M127.973907,382.000000 
	C127.973969,320.352936 127.970245,259.205841 127.976425,198.058762 
	C127.978256,179.893280 137.859863,170.062363 156.098816,170.062042 
	C276.726837,170.059982 397.354889,170.059799 517.982910,170.062241 
	C536.153564,170.062607 546.014221,179.947571 546.014709,198.159653 
	C546.017151,288.130829 546.017456,378.102020 546.014404,468.073212 
	C546.013794,486.249603 536.178894,496.013916 517.885803,496.014069 
	C397.257782,496.015198 276.629761,496.015289 156.001740,496.013885 
	C137.779709,496.013672 127.981812,486.215820 127.976364,467.972412 
	C127.967865,439.481598 127.973984,410.990814 127.973907,382.000000 
M140.649506,242.499817 
	C140.649536,317.650543 140.644455,392.801239 140.655045,467.951965 
	C140.656647,479.330139 144.624817,483.308685 155.950333,483.309326 
	C276.757935,483.316315 397.565552,483.317291 518.373169,483.307190 
	C529.100647,483.306305 533.313599,479.190094 533.315857,468.605042 
	C533.335205,378.290924 533.334045,287.976837 533.317871,197.662735 
	C533.315979,186.956726 529.176697,182.839493 518.526184,182.838867 
	C397.551941,182.831772 276.577698,182.831970 155.603455,182.838242 
	C144.669403,182.838806 140.674362,186.894180 140.655548,198.009064 
	C140.631012,212.505936 140.649506,227.002869 140.649506,242.499817 
z"/>
<path fill="#FFDB6E" opacity="1.000000" stroke="none" 
	d="
M179.498657,104.760071 
	C174.377197,106.581482 170.228622,105.655258 167.152100,101.583923 
	C164.617706,98.230026 164.433640,94.482697 166.590881,90.838493 
	C168.846573,87.027969 172.308884,85.384224 176.705673,86.000786 
	C180.931778,86.593422 183.734573,89.173309 184.782486,93.149048 
	C186.076035,98.056816 184.093445,101.901474 179.498657,104.760071 
z"/>
<path fill="#FFDB6E" opacity="1.000000" stroke="none" 
	d="
M501.050232,102.094284 
	C500.302887,109.350357 496.720795,113.472130 490.935150,114.162987 
	C485.399323,114.823997 480.476959,112.064026 478.420502,107.146027 
	C476.296814,102.067245 477.982910,96.198036 482.496979,92.956078 
	C489.911530,87.630989 499.107635,91.961525 501.050232,102.094284 
z"/>
<path fill="#FFDB6E" opacity="1.000000" stroke="none" 
	d="
M341.570435,91.053551 
	C351.291779,90.654785 357.383484,96.671753 355.869385,104.717056 
	C354.917236,109.776337 350.706024,113.670273 345.627533,114.187340 
	C340.134979,114.746567 335.116913,111.822884 333.208923,106.951904 
	C331.268616,101.998398 332.857391,96.293968 337.197449,93.141151 
	C338.384613,92.278748 339.835419,91.779312 341.570435,91.053551 
z"/>
<path fill="#FFDB6E" opacity="1.000000" stroke="none" 
	d="
M405.266052,99.702347 
	C408.653259,92.075951 414.510681,89.124428 420.883179,91.504158 
	C426.741516,93.691872 429.850983,100.082893 428.002441,106.136658 
	C426.247650,111.883354 420.396301,115.241226 414.217865,114.047081 
	C408.080017,112.860779 404.779907,107.777687 405.266052,99.702347 
z"/>
<path fill="#FFDB6E" opacity="0.500000" stroke="none" 
	d="
M140.649506,241.999802 
	C140.649506,227.002869 140.631012,212.505936 140.655548,198.009064 
	C140.674362,186.894180 144.669403,182.838806 155.603455,182.838242 
	C276.577698,182.831970 397.551941,182.831772 518.526184,182.838867 
	C529.176697,182.839493 533.315979,186.956726 533.317871,197.662735 
	C533.334045,287.976837 533.335205,378.290924 533.315857,468.605042 
	C533.313599,479.190094 529.100647,483.306305 518.373169,483.307190 
	C397.565552,483.317291 276.757935,483.316315 155.950333,483.309326 
	C144.624817,483.308685 140.656647,479.330139 140.655045,467.951965 
	C140.644455,392.801239 140.649536,317.650543 140.649506,241.999802 
M470.499969,219.890030 
	C479.330322,219.889938 488.160980,219.935989 496.990875,219.871872 
	C501.996460,219.835510 504.933472,217.430328 504.985382,213.565704 
	C505.037659,209.672714 502.094574,207.242279 497.153503,207.114029 
	C496.154510,207.088089 495.154266,207.109970 494.154602,207.109970 
	C389.356873,207.109955 284.559174,207.109863 179.761459,207.110138 
	C172.156784,207.110153 168.888962,209.101410 169.021194,213.650543 
	C169.148392,218.027512 172.299667,219.889435 179.598465,219.889496 
	C276.232300,219.890213 372.866119,219.890015 470.499969,219.890030 
M356.499878,446.230804 
	C297.531677,446.230804 238.563461,446.228943 179.595261,446.239563 
	C177.769302,446.239868 175.481384,445.708740 174.221710,446.588837 
	C172.139069,448.043945 169.259476,450.555206 169.396484,452.424988 
	C169.561493,454.676758 172.273499,457.042694 174.388657,458.722351 
	C175.428558,459.548126 177.608582,458.972534 179.272675,458.972717 
	C239.740067,458.978699 300.207458,458.977844 360.674835,458.977844 
	C365.338989,458.977844 370.003143,458.977051 374.667297,458.976807 
	C378.875458,458.976593 381.855286,457.385162 382.123749,452.772736 
	C382.359650,448.719757 379.544800,446.327850 374.490265,446.251526 
	C368.827942,446.166016 363.163330,446.231201 356.499878,446.230804 
M340.065613,417.208069 
	C337.611053,416.909821 335.156738,416.354034 332.701874,416.351410 
	C284.934143,416.300110 237.166412,416.313232 189.398666,416.313477 
	C185.071274,416.313507 180.740524,416.209442 176.417404,416.345795 
	C171.767197,416.492432 169.008377,418.983734 169.020401,422.723724 
	C169.032654,426.536285 171.766479,428.988586 176.426468,428.991364 
	C229.520218,429.023010 282.614166,429.058838 335.707153,428.854309 
	C338.050842,428.845276 341.532043,427.056641 342.397461,425.150116 
	C343.237915,423.298584 341.390411,420.226959 340.065613,417.208069 
M280.500000,266.988129 
	C246.017441,266.988159 211.534897,266.979187 177.052338,266.997925 
	C171.906540,267.000702 169.108170,269.205109 169.022766,273.140747 
	C168.938110,277.041870 171.817017,279.649017 176.809296,279.653534 
	C229.615860,279.701233 282.422485,279.699951 335.229065,279.660858 
	C340.449982,279.656982 343.125641,277.383911 343.190979,273.391510 
	C343.259796,269.186981 340.503662,267.001129 334.972931,266.995239 
	C317.148621,266.976257 299.324310,266.988129 280.500000,266.988129 
M467.499817,279.686829 
	C477.325928,279.685974 487.152679,279.752075 496.977905,279.657867 
	C502.418945,279.605713 505.709961,276.550446 504.887939,272.367981 
	C504.011963,267.911011 500.776672,266.937836 496.662140,266.947937 
	C466.517883,267.021973 436.373322,266.987244 406.228882,266.988434 
	C399.900238,266.988678 393.569366,266.895905 387.243805,267.037598 
	C383.563721,267.119995 381.292297,269.262085 381.065948,272.924103 
	C380.836060,276.643402 383.009308,278.825989 386.578583,279.464996 
	C388.198700,279.755035 389.893829,279.678040 391.554993,279.678802 
	C416.536591,279.690186 441.518158,279.686768 467.499817,279.686829 
M444.500000,429.012115 
	C461.987122,429.012085 479.474274,429.032043 496.961334,429.000214 
	C502.398163,428.990326 505.719849,426.045349 504.899475,421.839294 
	C503.971558,417.082031 500.350800,416.289490 496.177612,416.293549 
	C460.703796,416.327972 425.229919,416.302063 389.756073,416.324402 
	C383.935699,416.328064 380.899750,418.667694 381.004883,422.860565 
	C381.109741,427.041962 383.971985,429.006378 390.039398,429.009155 
	C407.859589,429.017395 425.679810,429.012115 444.500000,429.012115 
M380.171997,363.708649 
	C388.644012,355.244263 397.102417,346.766235 405.595581,338.323120 
	C408.450195,335.485321 409.586609,332.062073 406.693970,329.065460 
	C396.646759,318.657013 386.372498,308.462463 375.994568,298.382172 
	C373.381378,295.843933 369.574738,295.956940 367.707123,298.980621 
	C366.455444,301.007111 366.965210,304.368439 367.340515,307.040680 
	C367.508392,308.235962 369.261139,309.225403 370.327332,310.275055 
	C377.889282,317.719788 385.459717,325.155914 393.387360,332.948547 
	C389.265198,336.993347 385.597198,340.567322 381.957733,344.170197 
	C377.702332,348.382782 373.452393,352.601135 369.236420,356.853058 
	C365.335419,360.787262 364.773865,364.336975 367.516815,367.227325 
	C370.379120,370.243347 374.048004,369.697021 378.250763,365.625000 
	C378.728485,365.162140 379.191681,364.684235 380.171997,363.708649 
M279.347504,316.847321 
	C275.579895,320.604156 271.795868,324.344727 268.050171,328.123322 
	C265.331543,330.865784 264.616943,334.218506 267.321686,337.006927 
	C277.391937,347.388702 287.571869,357.679504 298.138885,367.545837 
	C299.567627,368.879852 304.001038,368.542633 306.039520,367.314087 
	C309.091217,365.474854 308.919952,361.925568 306.758331,358.990265 
	C305.683685,357.530945 304.267700,356.319031 302.979248,355.021881 
	C295.746704,347.740570 288.505920,340.467377 281.045776,332.968048 
	C289.233612,324.773682 297.231232,316.819885 305.166931,308.804810 
	C308.740173,305.195770 309.134186,301.555847 306.439301,298.774170 
	C303.717621,295.964844 300.013580,296.278320 296.443848,299.787720 
	C290.871155,305.266296 285.375885,310.823639 279.347504,316.847321 
M359.496460,249.769730 
	C364.487000,249.760696 369.486206,249.929062 374.465240,249.685028 
	C378.272705,249.498413 380.836639,247.228561 380.789154,243.341080 
	C380.742371,239.513016 378.296417,237.346603 374.406525,237.049103 
	C373.413818,236.973175 372.411194,237.022812 371.413116,237.022781 
	C348.455994,237.021866 325.498901,237.021484 302.541779,237.023804 
	C301.377594,237.023911 300.194305,236.918869 299.052765,237.086502 
	C295.444855,237.616333 292.741516,239.947479 293.393463,243.349945 
	C293.841858,245.689957 296.584229,247.806824 298.712769,249.508774 
	C299.647552,250.256165 301.606964,249.762756 303.101196,249.763519 
	C321.566711,249.773026 340.032196,249.769730 359.496460,249.769730 
M485.493103,446.229797 
	C465.698669,446.229797 445.904205,446.218323 426.109772,446.237030 
	C420.397095,446.242401 417.197723,448.636902 417.288177,452.722565 
	C417.374847,456.638519 420.488312,458.965088 425.847626,458.969666 
	C449.467896,458.989807 473.088196,458.992981 496.708435,458.966217 
	C502.030426,458.960205 505.058899,456.522308 504.987366,452.495789 
	C504.916809,448.528564 501.892975,446.288025 496.469360,446.235809 
	C493.142853,446.203766 489.815826,446.229828 485.493103,446.229797 
M473.500000,237.021408 
	C457.365021,237.021652 441.229919,236.992996 425.095093,237.039780 
	C420.274780,237.053757 416.974487,239.735153 417.328827,243.506104 
	C417.741486,247.897568 420.604767,249.769363 424.863464,249.768890 
	C448.982758,249.766190 473.102142,249.798080 497.221313,249.744980 
	C502.148987,249.734146 505.072632,247.128479 504.979614,243.237534 
	C504.886627,239.345871 502.016266,237.067749 496.955811,237.034317 
	C489.470856,236.984863 481.985291,237.021454 473.500000,237.021408 
M182.585373,249.770203 
	C204.379532,249.769913 226.173706,249.783081 247.967834,249.760132 
	C253.635345,249.754181 256.854858,247.273224 256.705261,243.176880 
	C256.562714,239.273453 253.473816,237.036591 248.066208,237.028625 
	C233.924988,237.007782 219.783722,237.021255 205.642471,237.021454 
	C195.826782,237.021591 186.011078,237.008621 176.195435,237.029541 
	C172.138321,237.038193 169.472366,238.904968 169.065094,243.088425 
	C168.701431,246.823730 171.635681,249.498672 176.130768,249.750549 
	C177.955154,249.852768 179.789917,249.769211 182.585373,249.770203 
M380.424347,394.855286 
	C381.016937,389.080017 379.149780,386.629425 373.484375,386.608459 
	C349.188354,386.518555 324.891693,386.536224 300.595520,386.599060 
	C295.957245,386.611053 293.135925,389.174316 293.158173,392.861816 
	C293.180573,396.577789 296.024658,399.049744 300.637939,399.057129 
	C324.934265,399.095947 349.231567,399.165253 373.525513,398.922638 
	C375.732391,398.900574 377.917908,396.740875 380.424347,394.855286 
M254.145050,387.878448 
	C252.411774,387.442352 250.679779,386.632507 248.944992,386.626495 
	C224.823761,386.542572 200.702148,386.573151 176.580627,386.563904 
	C172.370178,386.562286 169.389511,388.168884 169.076675,392.719574 
	C168.805450,396.664978 171.775543,399.056183 176.824402,399.062561 
	C200.779541,399.092834 224.734772,399.101257 248.689865,399.059540 
	C255.981064,399.046844 258.406433,394.709106 254.145050,387.878448 
M458.500000,399.076416 
	C471.164307,399.076416 483.828644,399.090668 496.492920,399.069855 
	C502.109283,399.060638 504.930481,396.964539 504.960632,392.881775 
	C504.990540,388.833160 502.109161,386.586945 496.561707,386.579559 
	C472.899506,386.548004 449.237183,386.546387 425.574982,386.584106 
	C420.131042,386.592773 417.169098,389.011871 417.327118,393.048981 
	C417.476990,396.878082 420.373413,399.053101 425.505981,399.066803 
	C436.170563,399.095276 446.835327,399.076050 458.500000,399.076416 
M196.499924,339.245728 
	C213.291412,339.245087 230.083023,339.282227 246.874283,339.220062 
	C251.703140,339.202209 254.272156,336.917084 254.087326,332.941223 
	C253.887192,328.636261 251.273331,326.827759 247.175079,326.827271 
	C223.401047,326.824432 199.626999,326.818542 175.852966,326.834808 
	C171.686264,326.837646 169.069427,328.955627 169.125229,333.136017 
	C169.181320,337.338593 171.914597,339.254578 176.048431,339.246277 
	C182.532257,339.233246 189.016098,339.244659 196.499924,339.245728 
M419.884674,332.607330 
	C419.928955,337.176392 422.417206,339.232849 426.801483,339.235321 
	C450.433624,339.248596 474.065796,339.270844 497.697815,339.219452 
	C502.347198,339.209320 505.214966,336.675812 504.920563,332.884583 
	C504.594025,328.679565 502.005859,326.814880 497.876740,326.817200 
	C474.244598,326.830353 450.612427,326.837250 426.980347,326.808563 
	C423.387756,326.804199 420.893677,328.154541 419.884674,332.607330 
M230.499481,309.433319 
	C235.819794,309.432678 241.141312,309.502747 246.460052,309.411224 
	C251.648758,309.321960 254.342834,307.062408 254.082382,302.971069 
	C253.788742,298.358521 250.836807,296.785095 246.592957,296.920227 
	C245.596420,296.951996 244.597992,296.924408 243.600433,296.924408 
	C223.150482,296.924377 202.700531,296.923737 182.250580,296.925262 
	C179.923035,296.925446 177.591995,296.859680 175.268723,296.962708 
	C171.552338,297.127533 169.279892,299.208313 169.115372,302.837891 
	C168.937912,306.753143 171.227539,308.967316 175.136581,309.350250 
	C176.455399,309.479401 177.793549,309.430145 179.122864,309.430481 
	C195.915100,309.434814 212.707336,309.433319 230.499481,309.433319 
M498.019379,296.926178 
	C474.562164,296.925659 451.104950,296.908600 427.647797,296.937378 
	C422.426117,296.943787 419.742615,299.119873 419.907196,303.228699 
	C420.094421,307.902832 423.133820,309.423492 427.304901,309.425201 
	C450.762085,309.434662 474.219299,309.425201 497.676483,309.432465 
	C501.459778,309.433655 504.366852,307.942871 504.836121,304.007843 
	C505.326721,299.893829 503.096375,297.448700 498.019379,296.926178 
M203.500183,356.669861 
	C195.187042,356.670044 186.873856,356.656982 178.560760,356.674683 
	C171.991043,356.688660 169.121231,358.559845 169.039505,362.822662 
	C168.957245,367.113312 171.931274,369.165375 178.322556,369.174866 
	C187.965805,369.189240 197.609085,369.179382 207.252350,369.179199 
	C220.387146,369.178925 233.522186,369.225189 246.656601,369.154419 
	C251.986176,369.125732 255.008270,365.950012 253.988983,361.576599 
	C253.060486,357.592804 250.043045,356.653625 246.398483,356.661072 
	C232.432434,356.689667 218.466309,356.670929 203.500183,356.669861 
M490.465393,356.669861 
	C469.680481,356.670380 448.895508,356.688293 428.110657,356.655426 
	C424.351959,356.649506 421.023865,357.280243 420.013000,361.563782 
	C418.978638,365.947052 421.994507,369.132172 427.328247,369.153870 
	C443.457062,369.219482 459.586365,369.182343 475.715454,369.177704 
	C483.364105,369.175507 491.013977,369.234497 498.660858,369.112244 
	C502.626038,369.048859 504.917236,366.729523 504.884735,362.830688 
	C504.854340,359.183594 502.638489,357.022339 498.928680,356.776001 
	C496.444489,356.611053 493.943695,356.696472 490.465393,356.669861 
M333.011963,324.472717 
	C329.417419,336.223236 325.791901,347.964386 322.245758,359.729492 
	C321.065491,363.645264 321.570984,367.149719 325.860840,368.832489 
	C329.601837,370.299957 332.769104,368.240021 334.275299,363.372742 
	C340.116547,344.496582 345.902679,325.603241 351.647186,306.697388 
	C353.134735,301.801697 351.723602,298.282166 348.075104,297.123657 
	C344.194611,295.891449 341.151062,298.009918 339.506744,303.224518 
	C337.359772,310.033325 335.290283,316.866608 333.011963,324.472717 
z"/>
<path fill="#080808" opacity="1.000000" stroke="none" 
	d="
M469.999939,219.890030 
	C372.866119,219.890015 276.232300,219.890213 179.598465,219.889496 
	C172.299667,219.889435 169.148392,218.027512 169.021194,213.650543 
	C168.888962,209.101410 172.156784,207.110153 179.761459,207.110138 
	C284.559174,207.109863 389.356873,207.109955 494.154602,207.109970 
	C495.154266,207.109970 496.154510,207.088089 497.153503,207.114029 
	C502.094574,207.242279 505.037659,209.672714 504.985382,213.565704 
	C504.933472,217.430328 501.996460,219.835510 496.990875,219.871872 
	C488.160980,219.935989 479.330322,219.889938 469.999939,219.890030 
z"/>
<path fill="#080808" opacity="1.000000" stroke="none" 
	d="
M356.999817,446.230835 
	C363.163330,446.231201 368.827942,446.166016 374.490265,446.251526 
	C379.544800,446.327850 382.359650,448.719757 382.123749,452.772736 
	C381.855286,457.385162 378.875458,458.976593 374.667297,458.976807 
	C370.003143,458.977051 365.338989,458.977844 360.674835,458.977844 
	C300.207458,458.977844 239.740067,458.978699 179.272675,458.972717 
	C177.608582,458.972534 175.428558,459.548126 174.388657,458.722351 
	C172.273499,457.042694 169.561493,454.676758 169.396484,452.424988 
	C169.259476,450.555206 172.139069,448.043945 174.221710,446.588837 
	C175.481384,445.708740 177.769302,446.239868 179.595261,446.239563 
	C238.563461,446.228943 297.531677,446.230804 356.999817,446.230835 
z"/>
<path fill="#080808" opacity="1.000000" stroke="none" 
	d="
M340.394470,417.449585 
	C341.390411,420.226959 343.237915,423.298584 342.397461,425.150116 
	C341.532043,427.056641 338.050842,428.845276 335.707153,428.854309 
	C282.614166,429.058838 229.520218,429.023010 176.426468,428.991364 
	C171.766479,428.988586 169.032654,426.536285 169.020401,422.723724 
	C169.008377,418.983734 171.767197,416.492432 176.417404,416.345795 
	C180.740524,416.209442 185.071274,416.313507 189.398666,416.313477 
	C237.166412,416.313232 284.934143,416.300110 332.701874,416.351410 
	C335.156738,416.354034 337.611053,416.909821 340.394470,417.449585 
z"/>
<path fill="#080808" opacity="1.000000" stroke="none" 
	d="
M281.000000,266.988129 
	C299.324310,266.988129 317.148621,266.976257 334.972931,266.995239 
	C340.503662,267.001129 343.259796,269.186981 343.190979,273.391510 
	C343.125641,277.383911 340.449982,279.656982 335.229065,279.660858 
	C282.422485,279.699951 229.615860,279.701233 176.809296,279.653534 
	C171.817017,279.649017 168.938110,277.041870 169.022766,273.140747 
	C169.108170,269.205109 171.906540,267.000702 177.052338,266.997925 
	C211.534897,266.979187 246.017441,266.988159 281.000000,266.988129 
z"/>
<path fill="#080808" opacity="1.000000" stroke="none" 
	d="
M466.999786,279.686829 
	C441.518158,279.686768 416.536591,279.690186 391.554993,279.678802 
	C389.893829,279.678040 388.198700,279.755035 386.578583,279.464996 
	C383.009308,278.825989 380.836060,276.643402 381.065948,272.924103 
	C381.292297,269.262085 383.563721,267.119995 387.243805,267.037598 
	C393.569366,266.895905 399.900238,266.988678 406.228882,266.988434 
	C436.373322,266.987244 466.517883,267.021973 496.662140,266.947937 
	C500.776672,266.937836 504.011963,267.911011 504.887939,272.367981 
	C505.709961,276.550446 502.418945,279.605713 496.977905,279.657867 
	C487.152679,279.752075 477.325928,279.685974 466.999786,279.686829 
z"/>
<path fill="#080808" opacity="1.000000" stroke="none" 
	d="
M444.000000,429.012115 
	C425.679810,429.012115 407.859589,429.017395 390.039398,429.009155 
	C383.971985,429.006378 381.109741,427.041962 381.004883,422.860565 
	C380.899750,418.667694 383.935699,416.328064 389.756073,416.324402 
	C425.229919,416.302063 460.703796,416.327972 496.177612,416.293549 
	C500.350800,416.289490 503.971558,417.082031 504.899475,421.839294 
	C505.719849,426.045349 502.398163,428.990326 496.961334,429.000214 
	C479.474274,429.032043 461.987122,429.012085 444.000000,429.012115 
z"/>
<path fill="#010101" opacity="1.000000" stroke="none" 
	d="
M379.916809,363.960968 
	C379.191681,364.684235 378.728485,365.162140 378.250763,365.625000 
	C374.048004,369.697021 370.379120,370.243347 367.516815,367.227325 
	C364.773865,364.336975 365.335419,360.787262 369.236420,356.853058 
	C373.452393,352.601135 377.702332,348.382782 381.957733,344.170197 
	C385.597198,340.567322 389.265198,336.993347 393.387360,332.948547 
	C385.459717,325.155914 377.889282,317.719788 370.327332,310.275055 
	C369.261139,309.225403 367.508392,308.235962 367.340515,307.040680 
	C366.965210,304.368439 366.455444,301.007111 367.707123,298.980621 
	C369.574738,295.956940 373.381378,295.843933 375.994568,298.382172 
	C386.372498,308.462463 396.646759,318.657013 406.693970,329.065460 
	C409.586609,332.062073 408.450195,335.485321 405.595581,338.323120 
	C397.102417,346.766235 388.644012,355.244263 379.916809,363.960968 
z"/>
<path fill="#010101" opacity="1.000000" stroke="none" 
	d="
M279.597656,316.597473 
	C285.375885,310.823639 290.871155,305.266296 296.443848,299.787720 
	C300.013580,296.278320 303.717621,295.964844 306.439301,298.774170 
	C309.134186,301.555847 308.740173,305.195770 305.166931,308.804810 
	C297.231232,316.819885 289.233612,324.773682 281.045776,332.968048 
	C288.505920,340.467377 295.746704,347.740570 302.979248,355.021881 
	C304.267700,356.319031 305.683685,357.530945 306.758331,358.990265 
	C308.919952,361.925568 309.091217,365.474854 306.039520,367.314087 
	C304.001038,368.542633 299.567627,368.879852 298.138885,367.545837 
	C287.571869,357.679504 277.391937,347.388702 267.321686,337.006927 
	C264.616943,334.218506 265.331543,330.865784 268.050171,328.123322 
	C271.795868,324.344727 275.579895,320.604156 279.597656,316.597473 
z"/>
<path fill="#080808" opacity="1.000000" stroke="none" 
	d="
M358.997070,249.769730 
	C340.032196,249.769730 321.566711,249.773026 303.101196,249.763519 
	C301.606964,249.762756 299.647552,250.256165 298.712769,249.508774 
	C296.584229,247.806824 293.841858,245.689957 293.393463,243.349945 
	C292.741516,239.947479 295.444855,237.616333 299.052765,237.086502 
	C300.194305,236.918869 301.377594,237.023911 302.541779,237.023804 
	C325.498901,237.021484 348.455994,237.021866 371.413116,237.022781 
	C372.411194,237.022812 373.413818,236.973175 374.406525,237.049103 
	C378.296417,237.346603 380.742371,239.513016 380.789154,243.341080 
	C380.836639,247.228561 378.272705,249.498413 374.465240,249.685028 
	C369.486206,249.929062 364.487000,249.760696 358.997070,249.769730 
z"/>
<path fill="#080808" opacity="1.000000" stroke="none" 
	d="
M485.991058,446.229797 
	C489.815826,446.229828 493.142853,446.203766 496.469360,446.235809 
	C501.892975,446.288025 504.916809,448.528564 504.987366,452.495789 
	C505.058899,456.522308 502.030426,458.960205 496.708435,458.966217 
	C473.088196,458.992981 449.467896,458.989807 425.847626,458.969666 
	C420.488312,458.965088 417.374847,456.638519 417.288177,452.722565 
	C417.197723,448.636902 420.397095,446.242401 426.109772,446.237030 
	C445.904205,446.218323 465.698669,446.229797 485.991058,446.229797 
z"/>
<path fill="#080808" opacity="1.000000" stroke="none" 
	d="
M474.000000,237.021408 
	C481.985291,237.021454 489.470856,236.984863 496.955811,237.034317 
	C502.016266,237.067749 504.886627,239.345871 504.979614,243.237534 
	C505.072632,247.128479 502.148987,249.734146 497.221313,249.744980 
	C473.102142,249.798080 448.982758,249.766190 424.863464,249.768890 
	C420.604767,249.769363 417.741486,247.897568 417.328827,243.506104 
	C416.974487,239.735153 420.274780,237.053757 425.095093,237.039780 
	C441.229919,236.992996 457.365021,237.021652 474.000000,237.021408 
z"/>
<path fill="#080808" opacity="1.000000" stroke="none" 
	d="
M182.102661,249.770203 
	C179.789917,249.769211 177.955154,249.852768 176.130768,249.750549 
	C171.635681,249.498672 168.701431,246.823730 169.065094,243.088425 
	C169.472366,238.904968 172.138321,237.038193 176.195435,237.029541 
	C186.011078,237.008621 195.826782,237.021591 205.642471,237.021454 
	C219.783722,237.021255 233.924988,237.007782 248.066208,237.028625 
	C253.473816,237.036591 256.562714,239.273453 256.705261,243.176880 
	C256.854858,247.273224 253.635345,249.754181 247.967834,249.760132 
	C226.173706,249.783081 204.379532,249.769913 182.102661,249.770203 
z"/>
<path fill="#010101" opacity="1.000000" stroke="none" 
	d="
M380.268829,395.214539 
	C377.917908,396.740875 375.732391,398.900574 373.525513,398.922638 
	C349.231567,399.165253 324.934265,399.095947 300.637939,399.057129 
	C296.024658,399.049744 293.180573,396.577789 293.158173,392.861816 
	C293.135925,389.174316 295.957245,386.611053 300.595520,386.599060 
	C324.891693,386.536224 349.188354,386.518555 373.484375,386.608459 
	C379.149780,386.629425 381.016937,389.080017 380.268829,395.214539 
z"/>
<path fill="#010101" opacity="1.000000" stroke="none" 
	d="
M254.472137,388.120575 
	C258.406433,394.709106 255.981064,399.046844 248.689865,399.059540 
	C224.734772,399.101257 200.779541,399.092834 176.824402,399.062561 
	C171.775543,399.056183 168.805450,396.664978 169.076675,392.719574 
	C169.389511,388.168884 172.370178,386.562286 176.580627,386.563904 
	C200.702148,386.573151 224.823761,386.542572 248.944992,386.626495 
	C250.679779,386.632507 252.411774,387.442352 254.472137,388.120575 
z"/>
<path fill="#010101" opacity="1.000000" stroke="none" 
	d="
M458.000000,399.076416 
	C446.835327,399.076050 436.170563,399.095276 425.505981,399.066803 
	C420.373413,399.053101 417.476990,396.878082 417.327118,393.048981 
	C417.169098,389.011871 420.131042,386.592773 425.574982,386.584106 
	C449.237183,386.546387 472.899506,386.548004 496.561707,386.579559 
	C502.109161,386.586945 504.990540,388.833160 504.960632,392.881775 
	C504.930481,396.964539 502.109283,399.060638 496.492920,399.069855 
	C483.828644,399.090668 471.164307,399.076416 458.000000,399.076416 
z"/>
<path fill="#010101" opacity="1.000000" stroke="none" 
	d="
M195.999939,339.245728 
	C189.016098,339.244659 182.532257,339.233246 176.048431,339.246277 
	C171.914597,339.254578 169.181320,337.338593 169.125229,333.136017 
	C169.069427,328.955627 171.686264,326.837646 175.852966,326.834808 
	C199.626999,326.818542 223.401047,326.824432 247.175079,326.827271 
	C251.273331,326.827759 253.887192,328.636261 254.087326,332.941223 
	C254.272156,336.917084 251.703140,339.202209 246.874283,339.220062 
	C230.083023,339.282227 213.291412,339.245087 195.999939,339.245728 
z"/>
<path fill="#010101" opacity="1.000000" stroke="none" 
	d="
M419.920654,332.201416 
	C420.893677,328.154541 423.387756,326.804199 426.980347,326.808563 
	C450.612427,326.837250 474.244598,326.830353 497.876740,326.817200 
	C502.005859,326.814880 504.594025,328.679565 504.920563,332.884583 
	C505.214966,336.675812 502.347198,339.209320 497.697815,339.219452 
	C474.065796,339.270844 450.433624,339.248596 426.801483,339.235321 
	C422.417206,339.232849 419.928955,337.176392 419.920654,332.201416 
z"/>
<path fill="#010101" opacity="1.000000" stroke="none" 
	d="
M229.999527,309.433350 
	C212.707336,309.433319 195.915100,309.434814 179.122864,309.430481 
	C177.793549,309.430145 176.455399,309.479401 175.136581,309.350250 
	C171.227539,308.967316 168.937912,306.753143 169.115372,302.837891 
	C169.279892,299.208313 171.552338,297.127533 175.268723,296.962708 
	C177.591995,296.859680 179.923035,296.925446 182.250580,296.925262 
	C202.700531,296.923737 223.150482,296.924377 243.600433,296.924408 
	C244.597992,296.924408 245.596420,296.951996 246.592957,296.920227 
	C250.836807,296.785095 253.788742,298.358521 254.082382,302.971069 
	C254.342834,307.062408 251.648758,309.321960 246.460052,309.411224 
	C241.141312,309.502747 235.819794,309.432678 229.999527,309.433350 
z"/>
<path fill="#010101" opacity="1.000000" stroke="none" 
	d="
M498.464417,296.937561 
	C503.096375,297.448700 505.326721,299.893829 504.836121,304.007843 
	C504.366852,307.942871 501.459778,309.433655 497.676483,309.432465 
	C474.219299,309.425201 450.762085,309.434662 427.304901,309.425201 
	C423.133820,309.423492 420.094421,307.902832 419.907196,303.228699 
	C419.742615,299.119873 422.426117,296.943787 427.647797,296.937378 
	C451.104950,296.908600 474.562164,296.925659 498.464417,296.937561 
z"/>
<path fill="#010101" opacity="1.000000" stroke="none" 
	d="
M204.000183,356.669861 
	C218.466309,356.670929 232.432434,356.689667 246.398483,356.661072 
	C250.043045,356.653625 253.060486,357.592804 253.988983,361.576599 
	C255.008270,365.950012 251.986176,369.125732 246.656601,369.154419 
	C233.522186,369.225189 220.387146,369.178925 207.252350,369.179199 
	C197.609085,369.179382 187.965805,369.189240 178.322556,369.174866 
	C171.931274,369.165375 168.957245,367.113312 169.039505,362.822662 
	C169.121231,358.559845 171.991043,356.688660 178.560760,356.674683 
	C186.873856,356.656982 195.187042,356.670044 204.000183,356.669861 
z"/>
<path fill="#010101" opacity="1.000000" stroke="none" 
	d="
M490.957855,356.669861 
	C493.943695,356.696472 496.444489,356.611053 498.928680,356.776001 
	C502.638489,357.022339 504.854340,359.183594 504.884735,362.830688 
	C504.917236,366.729523 502.626038,369.048859 498.660858,369.112244 
	C491.013977,369.234497 483.364105,369.175507 475.715454,369.177704 
	C459.586365,369.182343 443.457062,369.219482 427.328247,369.153870 
	C421.994507,369.132172 418.978638,365.947052 420.013000,361.563782 
	C421.023865,357.280243 424.351959,356.649506 428.110657,356.655426 
	C448.895508,356.688293 469.680481,356.670380 490.957855,356.669861 
z"/>
<path fill="#050505" opacity="1.000000" stroke="none" 
	d="
M333.099701,324.081055 
	C335.290283,316.866608 337.359772,310.033325 339.506744,303.224518 
	C341.151062,298.009918 344.194611,295.891449 348.075104,297.123657 
	C351.723602,298.282166 353.134735,301.801697 351.647186,306.697388 
	C345.902679,325.603241 340.116547,344.496582 334.275299,363.372742 
	C332.769104,368.240021 329.601837,370.299957 325.860840,368.832489 
	C321.570984,367.149719 321.065491,363.645264 322.245758,359.729492 
	C325.791901,347.964386 329.417419,336.223236 333.099701,324.081055 
z"/>
</svg>